<svg width="11" height="25" viewBox="0 0 11 25" fill="none" xmlns="http://www.w3.org/2000/svg">
<g id="Frame" clip-path="url(#clip0_3469_8059)">
<path id="Vector" d="M10.2634 12.25H6.96758V23.9673H2.10246V12.2612H-0.214844V8.09423H2.07612C2.07612 7.87407 2.06953 7.69531 2.07706 7.51655C2.1241 6.37907 2.05918 5.22182 2.24924 4.1088C2.61899 1.94297 4.20902 0.603204 6.4106 0.509119C7.79083 0.449846 9.17481 0.497829 10.5927 0.497829V4.51995C9.92373 4.51995 9.24444 4.51995 8.56608 4.51995C7.16893 4.51995 6.96382 4.726 6.96382 6.13068C6.96382 6.75729 6.96382 7.38389 6.96382 8.07165H10.6943C10.5484 9.49045 10.4092 10.8424 10.2643 12.249L10.2634 12.25Z" fill="#FAF8EB"/>
</g>
<defs>
<clipPath id="clip0_3469_8059">
<rect width="11" height="25" fill="white"/>
</clipPath>
</defs>
</svg>
