<svg width="20" height="21" viewBox="0 0 20 21" fill="none" xmlns="http://www.w3.org/2000/svg">
<g id="Frame">
<g id="Group">
<path id="Vector" d="M10.8941 8.01265C11.5066 7.13766 12.2847 6.63619 13.2491 6.43673C14.3056 6.21846 15.3632 6.21281 16.399 6.54587C17.895 7.02758 18.6552 8.15754 19.0428 9.60456C19.2893 10.5238 19.3448 11.4665 19.3533 12.4102C19.373 14.4518 19.3674 16.4934 19.3665 18.5351C19.3665 19.0413 19.1021 19.2972 18.6016 19.2981C17.7115 19.3 16.8215 19.3 15.9324 19.2981C15.4281 19.2981 15.191 19.0601 15.191 18.5548C15.191 16.5847 15.2023 14.6146 15.1825 12.6444C15.1778 12.1815 15.1101 11.7102 14.9981 11.2605C14.7798 10.3817 14.1702 9.88494 13.3196 9.8172C12.4117 9.74569 11.692 10.155 11.3043 10.9566C11.0268 11.5305 10.8923 12.1345 10.8932 12.7715C10.8951 14.6945 10.8941 16.6167 10.8932 18.5398C10.8932 19.0497 10.6458 19.2981 10.1358 19.2991C9.27776 19.3 8.41971 19.3009 7.56165 19.2991C7.07053 19.2981 6.80804 19.0394 6.80804 18.5539C6.80709 14.7802 6.80804 11.0064 6.80804 7.23269C6.80804 6.73592 7.05642 6.49036 7.55413 6.49036C8.4357 6.49036 9.31822 6.48942 10.1998 6.49036C10.6373 6.49036 10.8894 6.74533 10.8932 7.18471C10.8951 7.43685 10.8932 7.689 10.8932 8.01359L10.8941 8.01265Z" fill="#FAF8EB"/>
<path id="Vector_2" d="M0.989258 12.8964C0.989258 11.0222 0.989258 9.14802 0.989258 7.27385C0.989258 6.73663 1.23576 6.48825 1.77016 6.4873C2.60375 6.4873 3.43828 6.4873 4.27187 6.4873C4.8091 6.4873 5.07159 6.74886 5.07253 7.29173C5.07442 8.68136 5.07253 10.071 5.07253 11.4606C5.07253 13.7713 5.07253 16.0821 5.07253 18.3937C5.07253 19.058 4.83262 19.2969 4.17026 19.2969C3.37619 19.2969 2.58211 19.2979 1.78804 19.2969C1.24423 19.296 0.989258 19.0391 0.989258 18.4944C0.989258 16.6278 0.989258 14.7621 0.989258 12.8954V12.8964Z" fill="#FAF8EB"/>
<path id="Vector_3" d="M5.64993 2.83125C5.64993 4.28203 4.45787 5.47503 3.01273 5.46844C1.58264 5.4628 0.389648 4.26416 0.389648 2.83313C0.389648 1.38987 1.59111 0.192172 3.03437 0.198758C4.47104 0.205343 5.64993 1.39081 5.65087 2.83031L5.64993 2.83125Z" fill="#FAF8EB"/>
</g>
</g>
</svg>
